<svg xmlns="http://www.w3.org/2000/svg" width="1770" height="1280" viewBox="0 0 1770 1280" role="img" aria-labelledby="title desc">
<title id="title">Overview desktop and mobile wireframes</title>
<desc id="desc">Documentation layout only. Labels refer to actual supplied data and existing controls. No example values or simulated production states.</desc>
<rect width="1770" height="1280" fill="#f3f5f4"/>
<style>text{font-family:Arial,sans-serif;fill:#1b2227}.label{font-size:20px;font-weight:600}.body{font-size:16px}.note{font-size:15px;fill:#4a5963}</style>
<text x="24" y="32" class="label">Overview: desktop</text>
<text x="1374" y="32" class="label">Overview: mobile</text>
<rect x="24" y="54" width="1298" height="72" rx="10" fill="#ffffff" stroke="#637883"/>
<text x="40" y="82" class="label">Selected server and connection authority</text>
<text x="40" y="109" class="body">Relay / Paper / Host separately; compact observed Pulse; navigation palette</text>
<rect x="24" y="144" width="220" height="925" rx="10" fill="#ffffff" stroke="#637883"/>
<text x="40" y="172" class="label">Navigation</text>
<text x="40" y="199" class="body">Fleet; Monitor;</text>
<text x="40" y="220" class="body">Operate; Manage. Local</text>
<text x="40" y="241" class="body">navigation only.</text>
<rect x="264" y="144" width="1058" height="130" rx="10" fill="#e8ecea" stroke="#637883"/>
<text x="280" y="172" class="label">Tick Pulse</text>
<text x="280" y="199" class="body">Observed window; real Paper captures, capture age, gaps, Inspect samples</text>
<rect x="264" y="288" width="1058" height="155" rx="10" fill="#ffffff" stroke="#637883"/>
<text x="280" y="316" class="label">Tick health + online players</text>
<rect x="276" y="356" width="426.28" height="71" rx="3" fill="#e8ecea" stroke="#d3dad7"/>
<text x="286" y="384" style="font-size:26px">TPS</text>
<rect x="710.28" y="356" width="343.56" height="71" rx="3" fill="#e8ecea" stroke="#d3dad7"/>
<text x="720.28" y="384" style="font-size:26px">MSPT</text>
<rect x="1061.84" y="356" width="240.16" height="71" rx="3" fill="#e8ecea" stroke="#d3dad7"/>
<text x="1071.84" y="384" style="font-size:16px">Online players</text>
<rect x="264" y="457" width="1058" height="120" rx="10" fill="#ffffff" stroke="#637883"/>
<text x="280" y="485" class="label">Runtime instruments</text>
<rect x="276" y="525" width="343.56" height="36" rx="3" fill="#e8ecea" stroke="#d3dad7"/>
<text x="286" y="549.0" style="font-size:16px">JVM heap</text>
<rect x="627.56" y="525" width="333.22" height="36" rx="3" fill="#e8ecea" stroke="#d3dad7"/>
<text x="637.56" y="549.0" style="font-size:16px">Service CPU (% one core)</text>
<rect x="968.78" y="525" width="333.22" height="36" rx="3" fill="#e8ecea" stroke="#d3dad7"/>
<text x="978.78" y="549.0" style="font-size:16px">Service RAM</text>
<rect x="264" y="591" width="1058" height="130" rx="10" fill="#ffffff" stroke="#637883"/>
<text x="280" y="619" class="label">Recent activity + worlds</text>
<rect x="276" y="659" width="664.1" height="46" rx="3" fill="#e8ecea" stroke="#d3dad7"/>
<text x="286" y="687" style="font-size:16px">Real recent activity</text>
<rect x="948.1" y="659" width="353.9" height="46" rx="3" fill="#e8ecea" stroke="#d3dad7"/>
<text x="958.1" y="687" style="font-size:16px">Supplied worlds</text>
<rect x="264" y="735" width="1058" height="115" rx="10" fill="#ffffff" stroke="#637883"/>
<text x="280" y="763" class="label">Tick history + source details</text>
<text x="280" y="790" class="body">Existing TPS/MSPT charts and table in disclosure; safe diagnostics</text>
<rect x="1374" y="54" width="372" height="110" rx="10" fill="#ffffff" stroke="#637883"/>
<text x="1390" y="82" class="label">Menu / server / search</text>
<text x="1390" y="109" class="body">Authority text; palette; no bottom bar</text>
<rect x="1374" y="184" width="372" height="145" rx="10" fill="#e8ecea" stroke="#637883"/>
<text x="1390" y="212" class="label">Tick Pulse</text>
<text x="1390" y="239" class="body">Window, gap/freshness text and Inspect</text>
<text x="1390" y="260" class="body">samples</text>
<rect x="1374" y="343" width="372" height="155" rx="10" fill="#ffffff" stroke="#637883"/>
<text x="1390" y="371" class="label">Tick health</text>
<text x="1390" y="398" class="body">TPS and MSPT as one linked instrument pair</text>
<rect x="1374" y="512" width="372" height="90" rx="10" fill="#ffffff" stroke="#637883"/>
<text x="1390" y="540" class="label">Players online</text>
<text x="1390" y="567" class="body">Count and roster destination</text>
<rect x="1374" y="616" width="372" height="180" rx="10" fill="#ffffff" stroke="#637883"/>
<text x="1390" y="644" class="label">Runtime instruments</text>
<text x="1390" y="671" class="body">Heap, service CPU and service RAM;</text>
<text x="1390" y="692" class="body">labelled source</text>
<rect x="1374" y="810" width="372" height="160" rx="10" fill="#ffffff" stroke="#637883"/>
<text x="1390" y="838" class="label">Activity and worlds</text>
<text x="1390" y="865" class="body">Real supplied rows; authorized history</text>
<rect x="1374" y="984" width="372" height="107" rx="10" fill="#ffffff" stroke="#637883"/>
<text x="1390" y="1012" class="label">Tick history / source details</text>
<text x="1390" y="1039" class="body">TPS/MSPT charts, table and safe</text>
<text x="1390" y="1060" class="body">diagnostics disclosure</text>
<text x="24" y="1238" class="note">Single content scroll; intentional table/log wells remain labelled. Desktop rail from1024px; tablet drawer; mobile targets44px.</text>
</svg>